<svg xmlns="http://www.w3.org/2000/svg" viewBox="0 0 113.04 33.7"><defs><style>.cls-1{fill:#043947;}</style></defs><g id="Layer_2" data-name="Layer 2"><g id="Layer_1-2" data-name="Layer 1"><path class="cls-1" d="M2.49,28.25a1.77,1.77,0,0,1,2,1.76,1.79,1.79,0,0,1-2,1.79H1.2v1.83H.2V28.25Zm0,2.74a1,1,0,1,0,0-1.93H1.2V31Z"/><path class="cls-1" d="M7.46,31.46H6.31v2.17h-1V28.25H7.64c1.06,0,1.8.57,1.8,1.54a1.44,1.44,0,0,1-1,1.43l1.16,2.41H8.47Zm-1.15-.8H7.63a.8.8,0,0,0,0-1.6H6.31Z"/><path class="cls-1" d="M12.64,28.17a2.51,2.51,0,0,1,2.58,2.76,2.52,2.52,0,0,1-2.58,2.77A2.51,2.51,0,0,1,10.06,31,2.53,2.53,0,0,1,12.64,28.17Zm0,4.74c1,0,1.56-.91,1.56-2s-.49-2-1.56-2-1.57.91-1.57,2S11.57,32.91,12.64,32.91Z"/><path class="cls-1" d="M20.41,28.25l-1.93,5.38H17.37l-1.93-5.38h1l1.45,4.2h0l1.43-4.2Z"/><path class="cls-1" d="M21.12,33.63V28.25h1v5.38Z"/><path class="cls-1" d="M23.31,28.25h1.92a2.5,2.5,0,0,1,2.7,2.68,2.5,2.5,0,0,1-2.66,2.7h-2Zm1.87,4.57A1.63,1.63,0,0,0,26.92,31a1.66,1.66,0,0,0-1.79-1.89H24.3v3.76Z"/><path class="cls-1" d="M28.78,33.63V28.25h3.6v.81H29.76v1.46H32v.8H29.76v1.5h2.67v.81Z"/><path class="cls-1" d="M33.34,28.25h1.92A2.5,2.5,0,0,1,38,30.93a2.51,2.51,0,0,1-2.67,2.7h-2Zm1.87,4.57C36.3,32.82,37,32.2,37,31a1.66,1.66,0,0,0-1.79-1.89h-.83v3.76Z"/><path class="cls-1" d="M44.05,30.88a1.24,1.24,0,0,1,1,1.24c0,1-.81,1.51-1.86,1.51H40.85V28.25h2.36c1.09,0,1.71.59,1.71,1.4a1.26,1.26,0,0,1-.87,1.21Zm-2.22-1.83v1.48h1.35a.74.74,0,1,0,0-1.48Zm1.45,3.78a.76.76,0,1,0,0-1.51H41.83v1.51Z"/><path class="cls-1" d="M50.36,28.25l-2,3.26v2.12h-1v-2.1l-2-3.28h1.12l1.33,2.35h0l1.35-2.35Z"/><path class="cls-1" d="M52.35,32.91l.6-.65a2.06,2.06,0,0,0,1.54.65c.75,0,1.09-.29,1.09-.75s-.47-.63-1.28-.82-1.76-.52-1.76-1.56.71-1.61,2-1.61a2.68,2.68,0,0,1,1.95.75l-.55.65A2,2,0,0,0,54.51,29c-.65,0-1,.31-1,.72s.45.59,1.24.79,1.79.53,1.79,1.6-.74,1.63-2.08,1.63A2.9,2.9,0,0,1,52.35,32.91Z"/><path class="cls-1" d="M57.24,31a2.5,2.5,0,0,1,2.52-2.78,2.29,2.29,0,0,1,2.08,1.16l-.75.47a1.41,1.41,0,0,0-1.3-.83c-1,0-1.54.9-1.54,2s.48,2,1.56,2a1.43,1.43,0,0,0,1.32-.82l.73.45a2.29,2.29,0,0,1-2.09,1.16A2.48,2.48,0,0,1,57.24,31Z"/><path class="cls-1" d="M66,32.31H63.78l-.46,1.32h-1l2-5.38h1.2l2,5.38H66.49Zm-.28-.8-.83-2.31h0l-.83,2.31Z"/><path class="cls-1" d="M68.38,28.25h1v4.57H72v.81h-3.6Z"/><path class="cls-1" d="M72.94,33.63V28.25h3.61v.81H73.93v1.46h2.28v.8H73.93v1.5H76.6v.81Z"/><path class="cls-1" d="M77.51,28.25h1.92a2.5,2.5,0,0,1,2.7,2.68,2.5,2.5,0,0,1-2.66,2.7h-2Zm1.87,4.57A1.63,1.63,0,0,0,81.12,31a1.66,1.66,0,0,0-1.79-1.89H78.5v3.76Z"/><path class="cls-1" d="M88.39,32.31H86.15l-.47,1.32h-1l2-5.38h1.19l2,5.38h-1Zm-.29-.8-.83-2.31h0l-.83,2.31Z"/><path class="cls-1" d="M95.24,30.73v2.9h-.89l0-.64h0a1.74,1.74,0,0,1-1.52.71A2.44,2.44,0,0,1,90.39,31,2.56,2.56,0,0,1,93,28.17a2.49,2.49,0,0,1,2.15,1.1l-.74.51A1.55,1.55,0,0,0,93,29c-1.07,0-1.63.86-1.63,2S92,32.91,93,32.91a1.18,1.18,0,0,0,1.3-1.25v-.15H93.05v-.78Z"/><path class="cls-1" d="M96.49,33.63V28.25h1v5.38Z"/><path class="cls-1" d="M98.81,28.25h1v4.57h2.6v.81h-3.6Z"/><path class="cls-1" d="M103.23,33.63V28.25h3.61v.81h-2.62v1.46h2.28v.8h-2.28v1.5h2.67v.81Z"/><polygon class="cls-1" points="19.88 10.73 19.53 8.51 0 24.56 3.42 24.56 19.88 10.73"/><polygon class="cls-1" points="4.6 24.56 7.93 24.56 20.45 14.37 20.02 11.54 4.6 24.56"/><polygon class="cls-1" points="32.82 8.05 32.43 5.57 9.33 24.56 12.77 24.56 32.82 8.05"/><polygon class="cls-1" points="14.07 24.56 17.05 24.56 33.42 11.84 32.97 8.94 14.07 24.56"/><polygon class="cls-1" points="50.36 3.08 49.71 0.07 18.45 24.56 22.96 24.56 50.36 3.08"/><polygon class="cls-1" points="24.3 24.56 28.91 24.56 51.26 7.14 50.56 3.91 24.3 24.56"/><path class="cls-1" d="M69.23,8.74l-.13.72H65.43l.1-.53a7.37,7.37,0,0,0,.12-1.11c0-.92-.38-1.68-1.86-1.68A2.23,2.23,0,0,0,61.32,8c0,.13,0,.25,0,.38,0,3,6.45,5.22,6.45,10.18a6.84,6.84,0,0,1-.09,1.08c-.64,3.45-2.79,5.28-7.28,5.28-3,0-5-1.49-5-4.36a7.11,7.11,0,0,1,.13-1.33l.22-1.2h3.64l-.16.91a6.41,6.41,0,0,0-.09,1c0,1.36.72,1.86,2,1.86a2.39,2.39,0,0,0,2.66-2,3,3,0,0,0,.06-.51c0-3.38-6.32-5.15-6.32-10a6.84,6.84,0,0,1,.09-1.08c.6-3.42,3-5.12,7-5.12,3,0,4.71,1.45,4.71,4.24A8,8,0,0,1,69.23,8.74Z"/><path class="cls-1" d="M78.19,24.56l-.06-5.25H73.82l-1.89,5.25h-3.7L76.32,3.47h5L82,24.56Zm0-14.45c0-1.42,0-2.85,0-3.92-1.14,3.44-3.51,10.15-3.51,10.15h3.54S78.22,13.18,78.22,10.11Z"/><path class="cls-1" d="M96.54,6.5H90.65l-1,5.66h5.09l-.54,3H89.1l-1.64,9.36H83.69L87.43,3.47h9.64Z"/><path class="cls-1" d="M108,13.39l-.69,4H99.75l-.44,2.56a2.58,2.58,0,0,0,0,.48c0,1,.63,1.49,1.67,1.49,1.33,0,2.18-.51,2.41-2.25l0-.25h3.54l0,.25c-.41,3.38-2.79,5.28-6.49,5.28-3,0-4.65-1.49-4.65-4.17a7.84,7.84,0,0,1,.13-1.4l1-5.82c.7-3.82,2.91-5.69,6.49-5.69s4.74,1.46,4.74,3.86A10.67,10.67,0,0,1,108,13.39Zm-5.06-2.66a2.32,2.32,0,0,0-2.37,2.15l-.28,1.68h4l.29-1.68a4.62,4.62,0,0,0,.06-.57C104.62,11.27,104,10.73,102.91,10.73Z"/><path class="cls-1" d="M111.13,7.11a1.87,1.87,0,0,1,.94.25,1.77,1.77,0,0,1,.71.7A2,2,0,0,1,113,9a1.94,1.94,0,0,1-.25,1,1.84,1.84,0,0,1-.71.7,1.87,1.87,0,0,1-1.9,0,1.77,1.77,0,0,1-.71-.7,1.94,1.94,0,0,1-.25-1,2,2,0,0,1,.25-1,1.84,1.84,0,0,1,.71-.7A1.93,1.93,0,0,1,111.13,7.11Zm0,.38a1.61,1.61,0,0,0-.76.19,1.42,1.42,0,0,0-.57.57,1.64,1.64,0,0,0-.2.77,1.5,1.5,0,0,0,.2.77,1.42,1.42,0,0,0,.57.57,1.57,1.57,0,0,0,.76.2,1.64,1.64,0,0,0,.77-.2,1.46,1.46,0,0,0,.56-.57,1.51,1.51,0,0,0,.21-.77,1.54,1.54,0,0,0-.21-.77,1.42,1.42,0,0,0-.57-.57A1.59,1.59,0,0,0,111.13,7.49Zm-.87,2.56V8h1.07a.77.77,0,0,1,.31.08.52.52,0,0,1,.19.2.57.57,0,0,1,.08.29.53.53,0,0,1-.14.37.67.67,0,0,1-.41.2.6.6,0,0,1,.14.07.82.82,0,0,1,.14.16,1.59,1.59,0,0,1,.15.25l.24.41h-.51l-.17-.33a1.46,1.46,0,0,0-.28-.42.46.46,0,0,0-.29-.09h-.1v.84Zm.42-1.16h.16a3.43,3.43,0,0,0,.45,0,.26.26,0,0,0,.13-.1.24.24,0,0,0,0-.16.23.23,0,0,0,0-.15.25.25,0,0,0-.13-.09,1.94,1.94,0,0,0-.45,0h-.16Z"/><path class="cls-1" d="M53.81,20.57A8.59,8.59,0,0,1,54,18.94l.22-1.19.24-1.31h5.67C58.26,14.75,56,12.66,56,9.31A8.35,8.35,0,0,1,56.11,8,7.2,7.2,0,0,1,62,1.79L61.58,0,30.32,24.55H55.2A5.79,5.79,0,0,1,53.81,20.57Z"/></g></g></svg>