<svg id="Layer_1" data-name="Layer 1" xmlns="http://www.w3.org/2000/svg" viewBox="0 0 67.18 67.87"><defs><style>.cls-1{fill:#0a83a0;}</style></defs><path class="cls-1" d="M15.29,39.47a6.93,6.93,0,1,0-9.58-2.06,6.86,6.86,0,0,0,2.06,2.06A9.63,9.63,0,0,0,1.9,48.33H3.8a7.74,7.74,0,0,1,15.47-.56v.56h1.89a9.66,9.66,0,0,0-5.87-8.86m-8.8-5.81a5,5,0,1,1,5,5,5,5,0,0,1-5-5"/><path class="cls-1" d="M37.37,39.47a6.94,6.94,0,1,0-9.6-2.07,7,7,0,0,0,2.07,2.07A9.63,9.63,0,0,0,24,48.33H25.9a7.74,7.74,0,0,1,15.47-.56v.56h1.9a9.65,9.65,0,0,0-5.9-8.86m-8.8-5.81a5,5,0,1,1,5,5,5,5,0,0,1-5-5"/><path class="cls-1" d="M59.44,39.47a6.93,6.93,0,1,0-9.58-2.06,6.86,6.86,0,0,0,2.06,2.06,9.63,9.63,0,0,0-5.87,8.86H48a7.74,7.74,0,0,1,15.47-.56v.56h1.89a9.66,9.66,0,0,0-5.87-8.86m-8.79-5.81a5,5,0,1,1,5,5,5,5,0,0,1-5-5"/><path class="cls-1" d="M33.61,22.75a1,1,0,0,1-1-1V15.54a1,1,0,0,1,1.89-.2V21.8a1,1,0,0,1-.94.95"/><path class="cls-1" d="M41.4,26.67a.95.95,0,0,1-.68-1.62l4.69-4.69a1,1,0,0,1,1.35,1.34l-4.69,4.7a1,1,0,0,1-.67.27"/><path class="cls-1" d="M26.51,26.42a.91.91,0,0,1-.67-.28L21.66,22a1,1,0,1,1,1.24-1.44.47.47,0,0,1,.1.1l4.18,4.18a1,1,0,0,1,0,1.34,1,1,0,0,1-.67.28"/></svg>